<?xml version="1.0" standalone="no"?>
<!DOCTYPE svg PUBLIC "-//W3C//DTD SVG 20010904//EN"
 "http://www.w3.org/TR/2001/REC-SVG-20010904/DTD/svg10.dtd">
<svg version="1.0" xmlns="http://www.w3.org/2000/svg"
 width="370.000000pt" height="450.000000pt" viewBox="0 0 370.000000 450.000000"
 preserveAspectRatio="xMidYMid meet">

<g transform="translate(0.000000,450.000000) scale(0.100000,-0.100000)"
fill="#000000" stroke="none">
<path d="M656 3961 c-5 -7 43 -231 99 -466 8 -33 26 -114 41 -180 39 -176 52
-237 69 -310 8 -36 21 -93 29 -128 7 -34 28 -125 46 -202 44 -197 71 -313 80
-360 5 -22 25 -110 45 -195 19 -85 55 -245 80 -355 25 -110 56 -249 70 -310
14 -60 25 -111 25 -112 0 -2 8 -3 18 -3 10 0 79 66 156 147 77 82 187 198 244
258 58 61 137 144 176 185 38 41 115 122 171 180 55 58 138 146 185 195 46 50
130 137 185 195 55 58 177 186 270 285 94 99 221 233 283 297 61 64 112 121
112 126 0 19 -28 30 -205 86 -99 32 -191 61 -205 66 -14 5 -92 29 -175 55 -82
25 -161 50 -175 55 -14 5 -86 27 -160 50 -74 23 -166 52 -205 65 -38 13 -131
42 -205 65 -271 84 -296 92 -365 115 -38 13 -117 38 -175 55 -130 40 -301 94
-399 126 -78 26 -107 29 -115 15z m253 -117 c97 -31 201 -64 231 -74 30 -9 55
-22 55 -28 0 -12 -26 -40 -214 -239 -74 -78 -137 -140 -141 -138 -4 3 -10 19
-13 37 -3 18 -29 133 -56 255 -53 231 -55 243 -45 243 4 0 86 -25 183 -56z
m585 -185 c268 -84 286 -90 286 -101 0 -6 -42 -54 -93 -107 -51 -53 -129 -134
-174 -181 -45 -46 -84 -82 -86 -80 -3 3 -17 59 -32 125 -53 234 -85 380 -85
387 0 14 19 9 184 -43z m-181 -228 c32 -140 55 -257 52 -260 -3 -2 -20 0 -38
6 -17 6 -106 34 -197 63 -197 61 -232 73 -234 82 -2 11 348 378 355 370 3 -4
31 -121 62 -261z m667 75 c41 -13 143 -45 225 -71 83 -26 154 -49 158 -52 5
-3 -25 -39 -65 -82 -40 -42 -122 -127 -181 -190 -59 -62 -109 -112 -111 -110
-2 2 -11 38 -20 79 -9 41 -21 93 -26 115 -37 155 -70 309 -70 321 0 18 3 18
90 -10z m-88 -253 c31 -142 55 -260 52 -262 -2 -2 -95 24 -207 59 -111 34
-217 67 -235 72 -18 5 -32 13 -30 18 2 4 75 83 163 175 88 92 164 174 168 181
22 38 34 3 89 -243z m658 73 c41 -13 143 -45 225 -71 83 -25 156 -48 163 -50
25 -9 30 -3 -217 -264 -69 -72 -128 -128 -132 -124 -7 8 -119 498 -119 521 0
15 -7 16 80 -12z m-101 -151 c17 -77 42 -189 56 -250 30 -131 30 -129 8 -122
-10 3 -76 24 -148 47 -71 23 -168 53 -215 67 -47 14 -89 29 -94 34 -5 4 36 54
91 111 55 57 135 140 178 186 43 45 82 79 86 75 4 -4 21 -71 38 -148z m-1469
51 c58 -19 165 -53 238 -76 73 -23 132 -45 130 -50 -2 -5 -72 -81 -157 -170
-85 -89 -163 -172 -173 -186 -11 -13 -23 -24 -28 -24 -5 0 -16 35 -26 78 -9
42 -36 162 -60 267 -24 104 -44 191 -44 192 0 7 20 1 120 -31z m735 -231 c143
-44 205 -65 214 -72 2 -1 -50 -59 -115 -128 -65 -70 -146 -156 -180 -192 -60
-65 -61 -66 -67 -41 -4 15 -27 116 -52 225 -25 109 -50 215 -55 236 -6 20 -8
41 -5 46 3 5 29 1 57 -9 29 -10 121 -39 203 -65z m-310 33 c2 -13 23 -104 45
-203 22 -99 47 -207 55 -240 7 -33 12 -61 10 -64 -6 -5 -40 5 -280 81 -104 33
-194 64 -199 68 -5 5 33 52 86 107 52 54 132 137 178 186 46 48 87 87 91 87 5
0 11 -10 14 -22z m869 -210 c127 -39 235 -75 240 -79 5 -5 -34 -53 -90 -111
-54 -56 -138 -143 -186 -192 l-86 -90 -10 40 c-5 21 -31 134 -57 249 -25 116
-49 220 -52 233 -3 12 -2 22 2 22 4 0 112 -32 239 -72z m-249 -160 c26 -117
53 -235 60 -263 7 -27 10 -53 6 -57 -3 -4 -37 4 -76 17 -38 13 -131 42 -205
65 -182 56 -201 63 -198 72 5 13 350 378 358 378 4 0 28 -96 55 -212z m-949
-67 c32 -11 139 -45 237 -76 124 -39 175 -60 170 -68 -19 -33 -347 -366 -354
-360 -4 5 -12 31 -17 58 -6 28 -32 140 -57 250 -45 198 -48 215 -42 215 2 0
30 -9 63 -19z m669 -212 c161 -51 284 -89 308 -96 10 -3 17 -11 15 -18 -5 -20
-342 -373 -350 -366 -4 3 -14 40 -23 81 -23 108 -41 190 -70 315 -28 122 -28
125 -17 125 4 0 66 -18 137 -41z m-189 -25 c43 -181 105 -467 101 -470 -2 -3
-22 2 -43 10 -34 13 -214 70 -359 113 -27 8 -56 17 -63 19 -8 2 -12 8 -10 13
7 19 344 369 353 367 5 -1 14 -25 21 -52z m-56 -484 c74 -23 138 -45 142 -49
3 -3 -28 -43 -70 -88 -226 -241 -286 -303 -293 -303 -3 0 -16 44 -28 98 -12
53 -29 126 -37 162 -8 36 -25 112 -39 170 -13 57 -22 107 -20 111 3 3 51 -8
107 -27 57 -18 164 -51 238 -74z"/>
<path d="M872 1282 c-9 -7 -12 -74 -10 -303 l3 -294 25 0 25 0 5 142 c5 132 7
143 29 167 56 59 123 67 161 19 18 -23 20 -41 20 -164 0 -149 3 -169 29 -169
36 0 41 20 41 167 0 154 -10 192 -60 238 -35 32 -126 28 -173 -7 -19 -16 -38
-28 -41 -28 -3 0 -6 51 -6 114 0 95 -3 115 -16 120 -19 7 -16 7 -32 -2z"/>
<path d="M2656 1265 c-19 -19 -20 -29 -6 -56 24 -44 81 -9 64 39 -11 32 -35
39 -58 17z"/>
<path d="M576 1121 c-61 -62 -65 -81 -15 -81 l29 0 0 -145 c0 -172 8 -198 69
-215 49 -13 99 -3 112 22 15 29 -3 43 -50 39 -63 -4 -72 19 -69 170 l3 124 55
5 c51 5 55 7 55 30 0 23 -4 25 -55 30 l-55 5 -3 38 c-2 20 -6 37 -10 37 -4 0
-34 -27 -66 -59z"/>
<path d="M1331 1096 c-8 -9 -11 -74 -9 -212 l3 -199 25 0 25 0 5 142 c5 131 7
143 28 166 24 26 54 40 105 51 20 5 27 12 27 31 0 46 -82 42 -126 -6 -19 -21
-34 -17 -34 11 0 10 -7 21 -16 24 -21 8 -20 8 -33 -8z"/>
<path d="M1675 1096 c-74 -32 -110 -115 -103 -231 8 -127 71 -188 194 -189 72
0 137 29 142 62 5 30 -16 35 -67 17 -55 -19 -94 -19 -131 0 -37 19 -70 62 -70
91 l0 24 135 0 c112 0 135 3 143 16 13 24 -4 112 -30 150 -43 64 -141 91 -213
60z m146 -83 c15 -15 30 -40 33 -55 l6 -28 -110 0 c-104 0 -110 1 -110 20 0
28 27 68 59 86 37 20 89 10 122 -23z"/>
<path d="M2110 1099 c-72 -29 -105 -94 -105 -209 0 -93 16 -136 64 -177 56
-48 185 -50 250 -4 35 25 37 33 16 51 -11 10 -24 9 -62 -4 -58 -20 -96 -20
-133 -1 -35 18 -70 65 -70 94 0 20 5 21 139 21 128 0 140 2 146 19 8 26 -12
109 -37 149 -36 59 -138 89 -208 61z m135 -81 c19 -18 37 -45 41 -60 l6 -28
-111 0 c-124 0 -131 5 -92 64 42 64 103 73 156 24z"/>
<path d="M2882 1095 c-37 -16 -62 -64 -62 -119 0 -55 39 -92 123 -117 69 -21
107 -42 107 -61 0 -5 -11 -20 -25 -33 -29 -30 -70 -32 -139 -9 -42 14 -50 15
-62 2 -55 -55 138 -110 224 -64 20 10 41 34 54 60 20 41 20 44 3 80 -22 47
-55 69 -132 91 -71 20 -98 43 -88 75 12 36 67 53 132 40 59 -13 78 -6 71 26
-7 39 -140 58 -206 29z"/>
<path d="M2657 1093 c-4 -3 -7 -122 -7 -263 0 -194 -3 -260 -13 -268 -6 -6
-28 -12 -47 -14 -71 -6 -43 -68 31 -68 29 0 43 7 63 31 l26 31 0 279 0 279
-23 0 c-13 0 -27 -3 -30 -7z"/>
<path d="M2458 766 c-36 -27 -17 -86 27 -86 44 0 61 52 27 83 -22 20 -31 21
-54 3z"/>
</g>
</svg>
