<?xml version="1.0" encoding="UTF-8"?>
<svg xmlns="http://www.w3.org/2000/svg" xmlns:xlink="http://www.w3.org/1999/xlink" width="370pt" height="450pt" viewBox="0 0 370 450" version="1.1">
<g id="surface1">
<path style=" stroke:none;fill-rule:nonzero;fill:rgb(14.901961%,30.196078%,89.411765%);fill-opacity:1;" d="M 369.730469 88.433594 L 336.046875 413.804688 L 184.636719 450 L 33.648438 413.855469 L 0 88.433594 Z M 369.730469 88.433594 "/>
<path style=" stroke:none;fill-rule:nonzero;fill:rgb(16.078431%,39.607843%,94.509804%);fill-opacity:1;" d="M 307.210938 393.085938 L 335.992188 115.042969 L 184.863281 115.042969 L 184.863281 422.335938 Z M 307.210938 393.085938 "/>
<path style=" stroke:none;fill-rule:nonzero;fill:rgb(92.156863%,92.156863%,92.156863%);fill-opacity:1;" d="M 77.136719 235.738281 L 81.285156 275.648438 L 184.863281 275.648438 L 184.863281 235.738281 Z M 77.136719 235.738281 "/>
<path style=" stroke:none;fill-rule:nonzero;fill:rgb(92.156863%,92.156863%,92.156863%);fill-opacity:1;" d="M 184.863281 154.957031 L 68.800781 154.957031 L 73.007812 194.867188 L 184.863281 194.867188 Z M 184.863281 154.957031 "/>
<path style=" stroke:none;fill-rule:nonzero;fill:rgb(92.156863%,92.156863%,92.156863%);fill-opacity:1;" d="M 184.863281 380.917969 L 184.863281 339.390625 L 184.660156 339.4375 L 133.113281 327.4375 L 129.816406 295.605469 L 83.351562 295.605469 L 89.835938 358.273438 L 184.652344 380.96875 Z M 184.863281 380.917969 "/>
<path style=" stroke:none;fill-rule:nonzero;fill:rgb(0%,0%,0%);fill-opacity:1;" d="M 87.011719 0 L 143.074219 0 L 143.074219 20.214844 L 110.457031 20.214844 L 110.457031 40.429688 L 143.074219 40.429688 L 143.074219 60.644531 L 87.011719 60.644531 Z M 87.011719 0 "/>
<path style=" stroke:none;fill-rule:nonzero;fill:rgb(0%,0%,0%);fill-opacity:1;" d="M 154.285156 0 L 210.347656 0 L 210.347656 17.578125 L 177.730469 17.578125 L 177.730469 21.09375 L 210.347656 21.09375 L 210.347656 61.523438 L 154.285156 61.523438 L 154.285156 43.066406 L 186.902344 43.066406 L 186.902344 39.550781 L 154.285156 39.550781 Z M 154.285156 0 "/>
<path style=" stroke:none;fill-rule:nonzero;fill:rgb(0%,0%,0%);fill-opacity:1;" d="M 221.558594 0 L 277.621094 0 L 277.621094 17.578125 L 245.003906 17.578125 L 245.003906 21.09375 L 277.621094 21.09375 L 277.621094 61.523438 L 221.558594 61.523438 L 221.558594 43.066406 L 254.175781 43.066406 L 254.175781 39.550781 L 221.558594 39.550781 Z M 221.558594 0 "/>
<path style=" stroke:none;fill-rule:nonzero;fill:rgb(100%,100%,100%);fill-opacity:1;" d="M 241.699219 275.648438 L 236.328125 327.410156 L 184.703125 339.425781 L 184.703125 380.949219 L 279.59375 358.273438 L 280.289062 351.527344 L 291.167969 246.453125 L 292.296875 235.738281 L 300.652344 154.957031 L 184.703125 154.957031 L 184.703125 194.867188 L 249.925781 194.867188 L 245.714844 235.738281 L 184.703125 235.738281 L 184.703125 275.648438 Z M 241.699219 275.648438 "/>
</g>
</svg>
