<?xml version="1.0" standalone="no"?>
<!DOCTYPE svg PUBLIC "-//W3C//DTD SVG 20010904//EN"
 "http://www.w3.org/TR/2001/REC-SVG-20010904/DTD/svg10.dtd">
<svg version="1.0" xmlns="http://www.w3.org/2000/svg"
 width="370.000000pt" height="450.000000pt" viewBox="0 0 370.000000 450.000000"
 preserveAspectRatio="xMidYMid meet">
<metadata>
Created by potrace 1.16, written by Peter Selinger 2001-2019
</metadata>
<g transform="translate(0.000000,450.000000) scale(0.100000,-0.100000)"
fill="#000000" stroke="none">
<path d="M3086 4484 c-3 -9 -6 -52 -6 -97 0 -152 -31 -267 -73 -275 -12 -2
-26 19 -54 77 -21 45 -43 81 -48 81 -11 0 -26 -35 -45 -107 -9 -36 -7 -57 16
-145 43 -162 34 -339 -19 -392 -7 -8 -27 -17 -44 -20 -38 -9 -43 -24 -43 -131
0 -107 5 -122 43 -131 17 -3 37 -12 44 -20 53 -53 62 -230 19 -392 -23 -88
-25 -109 -16 -145 19 -72 34 -107 45 -107 5 0 27 37 47 81 28 61 41 80 55 77
42 -8 73 -121 73 -273 0 -113 5 -125 46 -125 41 0 40 -1 52 176 7 96 15 143
30 178 30 66 48 59 93 -34 20 -41 41 -76 46 -77 12 -4 41 69 50 120 3 23 -4
74 -22 143 -50 197 -22 383 59 398 19 4 37 14 40 22 8 20 8 198 0 218 -3 8
-21 18 -40 22 -81 15 -109 201 -59 398 18 69 25 120 22 143 -9 52 -38 123 -51
123 -7 0 -20 -21 -29 -48 -24 -65 -54 -112 -72 -112 -33 0 -57 86 -67 230 -5
74 -11 141 -13 148 -7 18 -72 15 -79 -4z m107 -596 c109 -169 116 -627 12
-805 -14 -23 -30 -43 -36 -43 -6 0 -7 -4 -4 -10 4 -6 -9 -10 -31 -10 -96 0
-157 177 -157 455 0 274 61 455 153 455 31 0 39 -6 63 -42z"/>
<path d="M128 4173 c-49 -60 -83 -154 -108 -301 -26 -150 -29 -576 -5 -717 27
-155 61 -243 116 -297 19 -19 119 -26 119 -9 0 5 8 12 18 15 23 8 58 76 83
163 26 92 46 280 31 295 -18 18 -42 1 -42 -29 0 -74 -42 -234 -77 -294 -15
-25 -23 -29 -61 -29 -42 0 -72 16 -72 39 0 6 -4 11 -9 11 -21 0 -58 163 -66
290 -3 52 -8 112 -11 133 l-4 37 180 0 180 0 0 73 c-1 105 -27 352 -45 422
-22 86 -34 114 -69 167 -31 48 -31 48 -87 48 -41 0 -60 -5 -71 -17z m98 -109
c49 -13 102 -185 111 -361 l6 -103 -149 0 -150 0 8 93 c12 136 34 234 68 304
33 67 55 81 106 67z"/>
<path d="M969 4173 c-29 -34 -48 -71 -68 -129 l-20 -59 -1 93 c0 91 0 92 -25
92 l-25 0 0 -880 0 -880 25 0 25 0 1 308 c1 169 4 293 8 276 13 -50 55 -127
74 -132 9 -2 17 -8 17 -13 0 -5 23 -9 50 -9 28 0 50 5 50 10 0 6 7 10 15 10
19 0 63 77 87 153 36 115 50 258 50 497 1 319 -35 525 -111 635 -25 38 -30 40
-82 43 -43 2 -58 -1 -70 -15z m117 -131 c71 -92 100 -286 91 -607 -7 -248 -25
-343 -81 -432 -19 -29 -26 -33 -66 -33 -42 0 -47 3 -73 45 -52 81 -70 204 -70
480 -1 237 7 328 38 438 18 61 54 125 74 131 28 8 73 -3 87 -22z"/>
<path d="M1629 4171 c-40 -44 -83 -159 -104 -280 -58 -329 -31 -779 56 -957
18 -37 41 -69 51 -72 10 -2 18 -8 18 -13 0 -5 23 -9 50 -9 28 0 50 5 50 10 0
6 6 10 14 10 17 0 58 68 79 131 19 56 45 202 49 279 3 53 2 55 -22 55 -23 0
-25 -4 -37 -95 -14 -109 -34 -177 -66 -226 -20 -30 -27 -34 -67 -34 -40 0 -47
4 -67 34 -46 71 -82 249 -83 404 l0 72 177 0 176 0 -6 163 c-10 271 -55 457
-129 530 -24 24 -117 22 -139 -2z m97 -107 c48 -13 96 -156 113 -338 6 -60 11
-113 11 -118 0 -4 -67 -8 -150 -8 l-150 0 0 38 c1 70 29 247 49 305 39 112 66
138 127 121z"/>
<path d="M2038 4170 c-65 -72 -96 -233 -79 -414 11 -113 52 -214 99 -244 15
-9 29 -19 32 -23 3 -3 20 -14 39 -24 39 -20 76 -57 100 -100 12 -23 16 -58 16
-155 0 -117 -2 -129 -28 -182 l-28 -58 -58 0 -58 0 -27 54 c-27 54 -55 178
-56 249 0 33 -3 37 -27 37 l-26 0 6 -102 c4 -57 13 -131 22 -166 19 -81 65
-174 87 -180 10 -2 18 -8 18 -13 0 -5 25 -9 55 -9 30 0 55 4 55 9 0 5 10 11
23 15 30 7 71 88 87 173 20 99 9 344 -19 414 -21 56 -82 129 -108 129 -7 0
-13 5 -13 10 0 6 -7 10 -15 10 -9 0 -18 7 -21 15 -4 8 -14 15 -24 15 -11 0
-29 19 -47 48 -27 45 -28 53 -28 167 0 107 3 125 24 167 19 37 30 47 56 52 87
17 131 -52 142 -225 6 -85 7 -89 29 -89 23 0 24 3 24 79 0 141 -39 290 -89
340 -29 29 -137 29 -163 1z"/>
<path d="M2448 4173 c-29 -33 -61 -103 -74 -166 -18 -82 -17 -235 1 -320 15
-70 67 -171 94 -182 28 -10 116 -65 106 -65 -5 0 1 -7 13 -16 86 -60 97 -334
18 -427 -19 -23 -31 -27 -72 -27 -44 0 -51 3 -70 33 -40 63 -64 158 -64 252 0
52 -2 55 -24 55 -14 0 -27 -3 -29 -7 -8 -14 12 -206 28 -274 19 -75 68 -169
90 -169 8 0 15 -4 15 -10 0 -5 25 -10 55 -10 30 0 55 5 55 10 0 6 6 10 14 10
18 0 60 65 81 126 23 65 32 277 16 370 -7 38 -21 89 -32 114 -22 49 -75 110
-97 110 -7 0 -20 6 -27 13 -34 29 -45 37 -55 37 -6 0 -16 11 -22 25 -6 14 -14
25 -18 25 -17 0 -35 92 -35 176 1 78 5 98 28 146 22 45 33 57 58 62 88 17 127
-49 145 -241 6 -70 7 -73 32 -73 l25 0 -6 105 c-8 133 -31 224 -71 284 l-31
46 -66 3 c-52 2 -68 -1 -81 -15z"/>
<path d="M1467 4170 c-43 -13 -83 -71 -115 -165 -9 -24 -11 -12 -11 68 -1 97
-1 97 -26 97 l-25 0 0 -655 0 -655 24 0 24 0 5 448 c4 367 8 460 21 520 31
134 76 212 123 212 22 0 23 3 23 70 0 39 -3 70 -7 69 -5 0 -20 -4 -36 -9z"/>
<path d="M406 4143 c8 -32 80 -312 125 -481 l30 -114 -51 -201 c-28 -111 -67
-261 -86 -333 -19 -72 -34 -136 -34 -143 0 -6 13 -11 30 -11 24 0 30 5 38 33
5 17 37 146 73 286 l64 254 70 -287 70 -286 34 0 c29 0 33 3 29 23 -3 12 -42
166 -88 342 -72 282 -81 325 -73 360 6 22 38 148 73 280 35 132 65 255 68 273
4 30 2 32 -25 32 l-30 0 -52 -207 c-29 -115 -58 -227 -64 -251 l-11 -42 -12
39 c-6 22 -35 135 -64 251 l-53 210 -34 0 c-31 0 -33 -2 -27 -27z"/>
<path d="M3206 2559 c-3 -17 -6 -66 -6 -108 0 -120 -18 -248 -41 -294 -23 -44
-42 -67 -56 -67 -10 0 -51 69 -69 115 -30 78 -39 95 -49 95 -13 0 -48 -83 -64
-150 -9 -39 -6 -63 24 -185 27 -109 35 -160 35 -233 0 -105 -21 -198 -51 -224
-10 -9 -19 -21 -19 -27 0 -6 -11 -11 -25 -11 -14 0 -25 -4 -25 -9 0 -5 -8 -11
-18 -13 -23 -6 -32 -54 -31 -163 2 -110 9 -138 37 -145 13 -3 23 -10 23 -15
-1 -5 11 -13 26 -17 53 -14 83 -102 83 -246 0 -73 -8 -124 -35 -234 -34 -140
-35 -142 -19 -201 17 -68 45 -129 58 -131 5 0 24 35 43 79 19 44 40 85 48 91
8 6 15 16 15 23 0 6 9 11 21 11 11 0 17 -5 14 -10 -3 -6 0 -13 9 -16 35 -14
66 -167 66 -339 0 -118 4 -125 56 -125 27 0 46 5 49 12 2 7 8 83 14 168 11
165 29 257 55 276 9 6 16 16 16 23 0 6 5 11 10 11 20 0 59 -54 86 -120 40 -96
48 -102 72 -49 41 91 48 142 29 227 -57 253 -59 267 -53 337 12 136 45 215 88
215 10 0 21 7 24 15 4 8 14 15 24 15 26 0 30 19 30 155 0 138 -4 155 -32 155
-10 0 -16 5 -13 10 3 6 -3 10 -15 10 -35 0 -76 55 -91 123 -24 107 -18 216 21
369 32 129 33 142 22 195 -15 71 -44 143 -57 143 -5 -1 -28 -39 -50 -86 -38
-82 -64 -124 -79 -124 -12 0 -30 23 -49 63 -18 39 -33 147 -45 327 l-7 105
-46 3 c-45 3 -47 2 -53 -29z m104 -708 c0 -6 13 -24 28 -41 61 -66 112 -298
112 -508 0 -241 -49 -453 -124 -533 -14 -15 -22 -30 -19 -33 4 -3 -15 -6 -41
-6 -46 0 -76 16 -76 39 0 6 -4 11 -9 11 -13 0 -55 93 -74 165 -52 196 -51 521
2 706 26 90 47 136 78 174 24 29 34 34 76 34 26 1 47 -3 47 -8z"/>
<path d="M2555 2363 c-8 -110 -21 -173 -36 -173 -6 0 -7 -4 -4 -10 3 -5 -1
-10 -9 -10 -8 0 -26 25 -41 56 -14 30 -32 54 -38 51 -15 -5 -36 -63 -36 -103
-1 -17 6 -55 16 -85 9 -30 16 -90 17 -134 0 -99 -20 -150 -65 -160 l-29 -7 0
-85 c0 -87 10 -113 44 -113 43 0 65 -129 41 -240 -28 -128 -29 -147 -11 -195
10 -25 22 -45 27 -45 5 0 20 25 34 56 44 100 76 55 92 -131 8 -95 9 -100 32
-103 33 -5 41 12 41 95 0 178 52 250 94 133 10 -28 24 -50 31 -50 7 0 20 26
29 58 15 55 15 61 -5 132 -35 127 -17 290 32 290 9 0 21 6 27 13 15 19 24 91
17 139 -6 37 -12 46 -36 55 -19 7 -35 24 -44 47 -21 49 -18 166 5 253 17 64
17 78 6 123 -7 28 -16 53 -19 57 -13 12 -33 -6 -46 -43 -8 -21 -20 -44 -27
-52 -33 -32 -64 57 -64 184 0 81 -6 94 -40 94 l-28 0 -7 -97z m71 -351 c21
-13 44 -72 60 -149 33 -159 1 -427 -56 -475 -24 -21 -56 -23 -74 -5 -45 46
-71 164 -71 322 1 135 22 238 60 293 16 22 58 30 81 14z"/>
</g>
</svg>
