<?xml version="1.0" standalone="no"?>
<!DOCTYPE svg PUBLIC "-//W3C//DTD SVG 20010904//EN"
 "http://www.w3.org/TR/2001/REC-SVG-20010904/DTD/svg10.dtd">
<svg version="1.0" xmlns="http://www.w3.org/2000/svg"
 width="910.000000pt" height="380.000000pt" viewBox="0 0 910.000000 380.000000"
 preserveAspectRatio="xMidYMid meet">

<g transform="translate(0.000000,380.000000) scale(0.100000,-0.100000)"
fill="#000000" stroke="none">
<path d="M6976 3784 c-140 -45 -201 -139 -200 -309 0 -135 46 -226 141 -277
135 -74 353 -47 438 54 55 65 70 113 70 228 0 95 -3 110 -28 162 -51 105 -129
147 -282 154 -64 3 -104 -1 -139 -12z"/>
<path d="M1791 3770 c-30 -14 -104 -80 -228 -202 l-184 -182 216 -216 215
-215 92 0 c107 0 151 -18 218 -86 58 -60 83 -135 77 -230 l-6 -75 200 -200
199 -199 98 0 c109 0 152 -16 217 -80 62 -62 80 -109 80 -205 0 -76 -3 -91
-30 -139 -56 -101 -149 -155 -267 -153 -73 1 -140 30 -195 84 -72 70 -98 162
-80 278 l7 45 -190 190 -190 190 0 -508 0 -507 63 -63 c78 -76 102 -136 95
-231 -20 -250 -315 -360 -495 -184 -134 131 -107 368 51 453 l36 20 0 522 0
522 -27 15 c-36 19 -96 82 -117 124 -27 53 -37 125 -25 188 l11 57 -214 214
-213 213 -572 -572 c-402 -402 -580 -587 -600 -622 -36 -65 -38 -159 -5 -221
26 -49 1723 -1746 1769 -1769 53 -26 113 -30 179 -11 l59 17 853 851 c927 926
903 900 903 1011 0 113 32 77 -894 1003 -660 660 -862 857 -897 872 -60 27
-150 27 -209 1z"/>
<path d="M8106 3388 c-15 -149 -72 -299 -145 -380 -52 -58 -157 -112 -256
-131 l-70 -14 -3 -161 -2 -161 137 -3 138 -3 6 -570 c5 -541 6 -574 27 -647
23 -86 36 -114 82 -176 142 -196 573 -227 978 -70 82 32 102 43 98 56 -3 10
-24 78 -47 152 -22 74 -44 138 -48 142 -4 5 -52 -4 -106 -18 -82 -21 -118 -25
-200 -22 -109 4 -150 19 -187 69 -43 57 -48 117 -48 617 l0 472 270 0 270 0 0
180 0 180 -254 0 c-140 0 -261 3 -270 6 -14 5 -16 39 -16 275 l0 269 -174 0
-173 0 -7 -62z"/>
<path d="M5300 2860 c-289 -23 -510 -142 -621 -335 -72 -123 -106 -329 -80
-478 29 -165 113 -306 231 -385 l65 -44 -136 -136 c-160 -162 -184 -201 -184
-307 0 -54 6 -81 24 -118 21 -43 78 -98 114 -110 7 -2 -9 -27 -37 -58 -113
-125 -153 -225 -143 -353 18 -211 172 -332 502 -392 145 -27 619 -27 749 -1
399 81 610 260 646 548 19 153 -14 302 -87 397 -37 49 -134 108 -222 136 -136
43 -300 62 -771 92 -140 8 -256 17 -259 19 -2 2 23 45 54 95 56 89 59 92 89
85 164 -33 374 -30 529 9 242 62 400 201 473 416 14 42 19 85 19 180 0 146
-19 215 -85 315 l-40 60 93 7 c50 4 125 10 165 14 l72 6 0 153 0 154 -377 4
c-208 2 -403 9 -433 15 -79 15 -240 20 -350 12z m291 -376 c61 -20 124 -74
157 -138 24 -46 27 -61 27 -156 0 -98 -2 -109 -30 -159 -58 -105 -160 -156
-310 -156 -156 1 -257 56 -304 166 -44 102 -24 266 44 354 74 98 265 139 416
89z m-89 -1674 c279 -20 329 -30 370 -76 34 -38 27 -113 -14 -159 -64 -73
-162 -102 -378 -111 -339 -15 -521 51 -520 188 0 39 28 104 67 154 l27 36 90
-6 c50 -4 211 -15 358 -26z"/>
<path d="M6670 2853 c-1 -5 -9 -69 -20 -143 -14 -102 -16 -136 -7 -142 7 -4
53 -21 103 -38 51 -17 99 -39 108 -49 14 -16 16 -77 16 -593 0 -448 -3 -578
-12 -586 -7 -6 -51 -15 -98 -22 -146 -19 -130 1 -130 -160 l0 -140 515 0 515
0 0 139 c0 160 13 143 -123 161 -49 7 -94 19 -102 27 -13 12 -15 122 -15 784
l0 769 -375 0 c-206 0 -375 -3 -375 -7z"/>
</g>
</svg>
