<?xml version="1.0" standalone="no"?>
<!DOCTYPE svg PUBLIC "-//W3C//DTD SVG 20010904//EN"
 "http://www.w3.org/TR/2001/REC-SVG-20010904/DTD/svg10.dtd">
<svg version="1.0" xmlns="http://www.w3.org/2000/svg"
 width="370.000000pt" height="450.000000pt" viewBox="0 0 370.000000 450.000000"
 preserveAspectRatio="xMidYMid meet">
<metadata>
Created by potrace 1.16, written by Peter Selinger 2001-2019
</metadata>
<g transform="translate(0.000000,450.000000) scale(0.100000,-0.100000)"
fill="#000000" stroke="none">
<path d="M1650 4487 c-36 -6 -67 -13 -70 -17 -3 -4 -20 -11 -39 -15 -19 -4
-41 -14 -49 -21 -7 -8 -22 -14 -33 -14 -10 0 -19 -4 -19 -10 0 -5 -11 -12 -25
-16 -14 -3 -25 -10 -25 -15 0 -5 -7 -9 -15 -9 -8 0 -15 -4 -15 -9 0 -5 -8 -12
-17 -15 -45 -15 -206 -174 -252 -250 -13 -20 -26 -36 -30 -36 -5 0 -16 -18
-26 -40 -10 -22 -21 -40 -25 -40 -3 0 -16 -21 -28 -47 -12 -27 -26 -55 -31
-63 -22 -35 -59 -130 -76 -197 -10 -40 -22 -73 -27 -73 -4 0 -8 -12 -8 -27 0
-20 -17 -46 -58 -90 -69 -76 -92 -106 -117 -158 -11 -22 -26 -46 -33 -53 -6
-7 -12 -17 -12 -22 0 -5 -11 -33 -24 -62 -13 -29 -37 -100 -52 -158 -27 -98
-29 -118 -28 -285 0 -171 2 -186 32 -295 18 -63 43 -137 57 -165 13 -27 25
-56 25 -62 0 -7 4 -13 9 -13 5 0 14 -14 22 -31 26 -65 132 -190 210 -249 18
-14 38 -30 44 -36 6 -6 21 -15 33 -18 12 -4 22 -11 22 -16 0 -4 16 -11 35 -14
19 -4 35 -11 35 -15 0 -5 17 -12 38 -16 20 -4 43 -12 51 -18 20 -17 1432 -17
1452 0 8 6 31 14 52 18 20 4 37 11 37 16 0 4 16 11 35 15 19 3 35 10 35 14 0
5 10 12 23 16 12 4 24 10 27 13 3 4 25 22 50 41 56 44 64 52 131 131 30 35 61
79 68 97 7 17 17 32 22 32 4 0 11 10 15 23 3 12 17 45 29 72 67 145 102 354
91 535 -17 266 -110 496 -270 663 -42 44 -56 67 -61 100 -4 23 -11 47 -15 52
-5 6 -16 37 -25 70 -10 33 -30 88 -46 122 -17 35 -30 66 -31 70 0 5 -9 19 -19
32 -11 13 -19 30 -19 37 0 8 -9 22 -20 31 -11 10 -20 22 -20 28 0 5 -14 26
-30 45 -16 19 -30 38 -30 41 0 24 -193 210 -241 233 -11 5 -19 13 -19 18 0 4
-7 8 -15 8 -8 0 -15 4 -15 10 0 5 -11 12 -25 16 -14 3 -25 10 -25 14 0 4 -16
11 -35 14 -19 4 -35 11 -35 16 0 5 -16 12 -35 16 -19 3 -35 9 -35 13 0 26
-346 39 -480 18z m333 -612 c20 -4 37 -11 37 -15 0 -5 14 -11 30 -15 17 -4 30
-11 30 -16 0 -5 6 -9 13 -9 14 0 64 -38 109 -83 38 -38 108 -132 108 -145 0
-6 6 -17 14 -25 8 -7 29 -56 46 -108 25 -74 34 -124 43 -230 l11 -137 48 -6
c26 -4 48 -11 48 -16 0 -6 6 -10 13 -10 23 0 107 -75 115 -103 1 -4 9 -18 17
-31 9 -13 18 -47 22 -75 3 -28 10 -54 14 -57 12 -7 11 -91 -1 -99 -5 -3 -10
-21 -10 -39 0 -42 -43 -128 -85 -169 -45 -43 -54 -50 -97 -70 -34 -16 -85 -17
-665 -15 -656 3 -635 2 -691 43 -38 28 -108 105 -95 105 3 0 -1 8 -9 18 -35
40 -49 196 -27 292 9 41 76 160 90 160 3 0 16 9 29 20 13 11 29 20 36 20 7 0
14 6 17 13 2 8 29 12 87 12 58 0 85 -4 88 -12 2 -7 9 -13 15 -13 32 0 137
-124 137 -161 0 -29 28 -23 58 13 47 56 292 368 304 388 10 16 9 25 -6 52 -11
18 -22 35 -25 38 -3 3 -18 21 -32 40 -24 32 -101 112 -131 135 -33 26 -116 75
-126 75 -7 0 -12 4 -12 10 0 5 -16 12 -35 16 -19 3 -32 10 -29 15 3 5 -2 9
-10 9 -11 0 -3 13 22 38 56 55 104 92 119 92 7 0 13 4 13 9 0 5 14 12 30 16
17 4 30 11 30 16 0 5 12 9 28 9 15 0 34 5 42 10 16 11 155 7 223 -5z"/>
<path d="M210 841 c0 -4 -16 -11 -35 -14 -25 -4 -49 -20 -85 -59 -27 -29 -50
-57 -50 -61 0 -4 -9 -27 -20 -49 -17 -35 -20 -62 -20 -160 0 -72 4 -118 10
-118 6 0 10 -8 10 -18 0 -20 47 -95 79 -127 37 -37 50 -45 81 -52 17 -3 33
-10 36 -14 7 -12 91 -12 98 0 3 4 20 11 37 15 28 5 65 38 118 101 7 10 19 35
26 58 l12 41 7 -43 c6 -38 30 -85 69 -133 7 -9 25 -20 40 -23 15 -4 27 -11 27
-16 0 -5 18 -9 40 -9 22 0 40 4 40 9 0 5 13 12 28 16 15 3 37 18 47 32 11 14
26 32 33 40 7 7 16 29 19 48 7 41 18 38 27 -7 7 -40 78 -118 106 -118 11 0 20
-4 20 -10 0 -27 94 -1 143 39 29 24 67 88 67 113 0 29 13 13 29 -37 15 -43 71
-105 96 -105 8 0 15 -4 15 -10 0 -5 16 -10 35 -10 19 0 35 4 35 9 0 5 9 11 20
14 17 4 19 1 14 -21 -4 -15 -16 -35 -28 -44 -23 -19 -56 -24 -56 -8 0 6 -6 10
-12 10 -7 0 -21 13 -30 30 l-17 29 -41 -17 c-38 -16 -41 -19 -35 -47 8 -41 45
-93 77 -106 16 -6 59 -10 98 -7 64 3 73 7 99 35 43 47 51 106 51 355 l0 220
-57 -4 c-32 -3 -73 -1 -91 4 -68 19 -153 -39 -175 -119 -12 -47 -27 -57 -27
-18 0 14 -4 25 -9 25 -5 0 -13 9 -16 21 -11 34 -61 77 -103 89 -89 23 -179
-27 -204 -115 -15 -52 -28 -67 -28 -31 0 58 -62 128 -129 146 -47 12 -112 0
-142 -28 -28 -27 -67 -88 -72 -114 -2 -13 -5 1 -6 30 l-1 52 -130 0 -130 0 0
-60 c0 -55 2 -60 24 -66 14 -3 50 -4 81 -2 30 1 55 0 55 -4 0 -43 -63 -108
-114 -120 -74 -16 -156 37 -176 114 -7 24 -16 51 -21 60 -12 24 -11 68 1 68 6
0 10 9 10 20 0 53 60 140 97 140 7 0 13 5 13 10 0 6 20 10 45 10 25 0 45 -4
45 -10 0 -5 6 -10 13 -10 8 0 24 -9 37 -20 13 -11 26 -20 29 -20 13 0 61 63
61 79 0 25 -64 80 -100 88 -17 3 -30 9 -30 14 0 5 -25 9 -55 9 -30 0 -55 -4
-55 -9z m534 -372 c31 -29 29 -119 -3 -153 -79 -84 -180 64 -104 151 33 37 68
38 107 2z m335 21 c4 0 18 -18 30 -41 26 -46 24 -83 -10 -130 -26 -37 -66 -39
-100 -3 -32 35 -35 123 -4 152 26 23 46 32 63 26 8 -2 17 -4 21 -4z m347 4
c28 -7 44 -44 44 -99 0 -56 -17 -94 -46 -101 -36 -9 -61 4 -78 40 -20 43 -20
79 0 121 13 29 24 38 54 44 3 0 15 -2 26 -5z"/>
<path d="M1591 816 c-8 -10 -11 -101 -9 -322 l3 -309 55 0 55 0 5 80 c5 73 6
76 13 38 8 -47 53 -100 106 -126 38 -19 91 -23 91 -7 0 6 9 10 20 10 20 0 100
76 100 94 0 12 -61 66 -74 66 -5 0 -19 -11 -32 -25 -25 -27 -71 -34 -92 -13
-16 16 -15 28 3 28 8 0 15 4 15 9 0 5 16 12 35 15 19 4 35 11 35 16 0 5 11 12
25 16 14 3 25 10 25 15 0 5 8 9 18 9 22 0 42 19 42 41 0 21 -47 109 -70 131
-10 9 -36 22 -59 28 -82 22 -163 -29 -187 -116 -12 -46 -13 -36 -13 132 -1
126 -5 184 -13 192 -16 16 -83 15 -97 -2z"/>
<path d="M2320 780 c0 -5 -7 -10 -15 -10 -9 0 -21 -5 -28 -10 -49 -41 -67 -62
-82 -91 -10 -19 -21 -36 -26 -39 -19 -13 -31 -149 -19 -222 6 -40 14 -75 18
-78 4 -3 16 -21 26 -40 22 -39 57 -80 69 -80 5 0 15 -7 23 -15 9 -8 24 -15 35
-15 10 0 19 -4 19 -10 0 -12 87 -13 94 -1 3 4 19 11 36 15 30 6 110 77 110 98
0 18 -34 68 -47 68 -6 0 -27 -13 -45 -30 -18 -16 -40 -30 -50 -30 -9 0 -20 -4
-23 -10 -8 -12 -55 -13 -55 -1 0 5 -12 11 -27 15 -16 4 -41 23 -58 43 -28 34
-30 43 -33 128 -4 100 4 126 53 178 23 24 33 27 90 27 58 0 67 -3 95 -30 17
-16 33 -30 36 -30 3 0 14 10 25 23 30 36 24 71 -18 106 -21 17 -43 31 -50 31
-7 0 -13 5 -13 10 0 6 -30 10 -70 10 -40 0 -70 -4 -70 -10z"/>
<path d="M2600 475 l0 -296 48 3 47 3 0 290 0 290 -47 3 -48 3 0 -296z"/>
<path d="M3630 673 c0 -66 -3 -93 -10 -83 -7 11 -27 15 -72 15 -55 0 -67 -4
-95 -29 -18 -16 -38 -45 -44 -65 -6 -20 -15 -40 -20 -45 -5 -6 -9 -38 -9 -71
0 -119 83 -235 169 -235 16 0 31 5 33 12 3 8 24 12 61 10 l57 -2 0 295 0 295
-35 0 -35 0 0 -97z m-26 -189 c39 -38 34 -152 -7 -190 -26 -24 -67 -33 -67
-14 0 6 -6 10 -13 10 -21 0 -47 55 -47 98 0 24 9 56 21 76 18 31 26 36 59 36
22 0 45 -7 54 -16z"/>
<path d="M2815 601 c-60 -27 -96 -91 -103 -183 -5 -76 10 -146 40 -180 11 -13
23 -27 26 -33 22 -32 122 -59 137 -36 3 5 19 12 35 16 17 4 30 10 30 14 0 4 8
16 18 27 43 48 61 146 43 236 -9 41 -22 67 -50 99 -36 40 -43 43 -97 46 -33 1
-68 -1 -79 -6z m119 -123 c47 -75 13 -208 -54 -208 -54 0 -89 75 -75 160 9 53
28 70 75 70 30 0 43 -5 54 -22z"/>
<path d="M3067 593 c-4 -3 -7 -72 -7 -152 0 -139 1 -148 28 -199 17 -33 35
-55 50 -58 12 -4 22 -10 22 -15 0 -13 68 -11 72 3 3 7 29 12 69 12 l64 1 0
205 0 205 -45 0 -45 0 -5 -140 c-5 -149 -16 -185 -55 -185 -11 0 -29 7 -40 16
-18 13 -20 29 -23 164 l-4 150 -37 0 c-21 0 -41 -3 -44 -7z"/>
</g>
</svg>
