<?xml version="1.0" standalone="no"?>
<!DOCTYPE svg PUBLIC "-//W3C//DTD SVG 20010904//EN"
 "http://www.w3.org/TR/2001/REC-SVG-20010904/DTD/svg10.dtd">
<svg version="1.0" xmlns="http://www.w3.org/2000/svg"
 width="370.000000pt" height="450.000000pt" viewBox="0 0 370.000000 450.000000"
 preserveAspectRatio="xMidYMid meet">

<g transform="translate(0.000000,450.000000) scale(0.100000,-0.100000)"
fill="#000000" stroke="none">
<path d="M1394 3970 c-29 -12 -63 -85 -75 -162 -6 -39 -9 -516 -7 -1258 l3
-1195 23 -57 c13 -32 33 -65 45 -73 32 -23 902 -23 934 0 12 8 32 41 45 73
l23 57 0 1235 c0 1157 -1 1238 -18 1285 -9 28 -26 61 -37 75 l-19 25 -448 2
c-246 1 -458 -2 -469 -7z m923 -170 c16 -48 18 -2362 2 -2409 -6 -17 -19 -36
-29 -41 -12 -6 -186 -10 -444 -10 -409 0 -427 1 -445 19 -11 11 -23 35 -26 53
-3 18 -4 562 -3 1208 2 937 6 1180 16 1198 l13 22 452 -2 452 -3 12 -35z"/>
<path d="M1580 2963 l0 -596 73 70 c122 118 239 178 296 150 47 -22 50 -49 50
-519 l1 -438 61 0 60 0 -3 483 c-4 450 -6 487 -25 554 -26 90 -65 158 -106
184 -54 34 -157 13 -254 -51 l-33 -22 0 391 0 391 -60 0 -60 0 0 -597z"/>
<path d="M1995 3503 c-11 -89 -43 -251 -64 -320 -10 -34 -16 -64 -13 -67 11
-11 100 -6 110 7 25 30 70 229 87 380 l6 57 -60 0 -60 0 -6 -57z"/>
<path d="M1580 1900 c0 -145 3 -260 8 -254 4 5 34 64 67 131 l59 122 -58 123
c-32 68 -62 127 -67 133 -5 5 -9 -100 -9 -255z"/>
<path d="M1314 917 c-2 -7 -3 -91 -2 -187 3 -167 4 -175 23 -175 18 0 20 8 23
73 3 69 4 72 27 72 24 0 25 -2 25 -75 0 -68 2 -75 20 -75 19 0 20 7 20 191 0
176 -1 190 -17 187 -15 -3 -19 -16 -21 -71 -3 -64 -4 -67 -27 -67 -23 0 -25 3
-25 54 0 30 -3 61 -6 70 -7 19 -33 21 -40 3z"/>
<path d="M1515 918 c-3 -8 -4 -92 -3 -188 l3 -175 58 -3 57 -3 0 40 c0 39 -1
40 -37 43 -35 3 -38 6 -38 33 0 23 5 30 25 35 21 5 25 12 25 40 0 28 -4 35
-25 40 -18 4 -25 13 -25 30 0 21 6 26 35 30 33 5 35 7 35 45 l0 40 -53 3 c-37
2 -54 -1 -57 -10z"/>
<path d="M1687 923 c-4 -3 -7 -89 -7 -190 0 -176 1 -183 20 -183 18 0 20 7 20
65 0 36 4 65 8 65 5 0 15 -28 23 -62 12 -52 18 -64 37 -66 26 -4 26 -6 6 70
-14 55 -14 64 0 99 29 71 15 178 -24 199 -21 11 -73 13 -83 3z m78 -104 c9
-29 -4 -59 -26 -59 -15 0 -19 7 -19 38 0 21 3 41 6 45 10 10 33 -4 39 -24z"/>
<path d="M1891 898 c-26 -42 -35 -100 -29 -196 7 -114 49 -180 97 -150 44 27
68 148 51 256 -12 77 -36 116 -73 120 -21 3 -31 -4 -46 -30z m69 -67 c5 -11
10 -53 10 -94 0 -57 -4 -80 -18 -97 -17 -21 -19 -21 -32 -5 -8 9 -16 45 -18
80 -7 101 28 171 58 116z"/>
<path d="M2070 741 c0 -184 1 -191 20 -191 18 0 20 7 20 64 0 36 4 67 8 70 5
3 17 -26 26 -65 14 -51 23 -69 36 -69 9 0 19 3 22 6 3 3 -7 54 -23 114 l-29
108 25 67 c31 82 31 87 3 83 -18 -2 -27 -16 -43 -63 l-20 -60 -5 60 c-4 47 -9
61 -22 63 -17 3 -18 -11 -18 -187z"/>
<path d="M2254 915 c-4 -8 -4 -79 -2 -158 5 -171 15 -202 68 -202 56 0 65 30
65 215 0 136 -2 155 -17 158 -14 3 -16 -13 -20 -137 -3 -144 -13 -180 -40
-153 -10 10 -18 132 -18 283 0 15 -30 10 -36 -6z"/>
</g>
</svg>
