<?xml version="1.0" standalone="no"?>
<!DOCTYPE svg PUBLIC "-//W3C//DTD SVG 20010904//EN"
 "http://www.w3.org/TR/2001/REC-SVG-20010904/DTD/svg10.dtd">
<svg version="1.0" xmlns="http://www.w3.org/2000/svg"
 width="370.000000pt" height="450.000000pt" viewBox="0 0 370.000000 450.000000"
 preserveAspectRatio="xMidYMid meet">

<g transform="translate(0.000000,450.000000) scale(0.100000,-0.100000)"
fill="#000000" stroke="none">
<path d="M782 4198 l3 -303 82 -3 82 -3 3 103 3 103 72 3 72 3 3 -103 3 -103
83 -3 82 -3 0 306 0 305 -85 0 -85 0 0 -100 0 -100 -75 0 -75 0 0 100 0 100
-85 0 -85 0 2 -302z"/>
<path d="M1340 4400 l0 -100 75 0 75 0 0 -205 0 -205 80 0 80 0 2 203 3 202
73 3 72 3 0 99 0 100 -230 0 -230 0 0 -100z"/>
<path d="M1880 4195 l0 -306 78 3 77 3 5 144 5 144 53 -101 c29 -56 55 -102
57 -102 2 0 28 46 57 102 l53 101 5 -144 5 -144 80 0 80 0 3 303 2 302 -88 0
-87 0 -54 -107 -53 -108 -54 108 -54 107 -85 0 -85 0 0 -305z"/>
<path d="M2520 4195 l0 -305 200 0 200 0 0 100 0 100 -115 0 -115 0 0 205 0
205 -85 0 -85 0 0 -305z"/>
<path d="M547 3578 c2 -18 55 -748 119 -1623 64 -875 117 -1591 117 -1591 1
-1 241 -82 533 -180 l531 -180 534 180 c294 99 535 180 536 180 0 1 53 716
117 1591 64 875 117 1605 119 1623 l3 32 -1306 0 -1306 0 3 -32z m2133 -625
c0 -5 -7 -89 -15 -188 -8 -99 -15 -191 -15 -204 l0 -24 -630 7 c-346 3 -630 3
-630 -1 0 -4 7 -89 15 -188 8 -99 15 -186 15 -192 0 -10 127 -13 601 -13 l601
0 -6 -62 c-3 -35 -25 -313 -47 -618 -22 -305 -41 -556 -43 -557 -1 -1 -153
-53 -337 -116 l-335 -114 -335 114 c-184 63 -337 117 -341 121 -6 7 -48 531
-48 600 l0 32 164 0 c148 0 165 -2 170 -17 3 -10 8 -78 12 -150 3 -73 12 -139
18 -147 6 -7 86 -38 178 -69 l167 -55 185 59 c181 58 186 61 186 87 0 15 7
110 15 212 8 102 15 204 15 228 l0 42 -565 0 c-479 0 -565 2 -565 14 0 24 -79
1087 -85 1143 l-5 53 412 3 c1059 6 1248 6 1248 0z"/>
</g>
</svg>
