<?xml version="1.0" standalone="no"?>
<!DOCTYPE svg PUBLIC "-//W3C//DTD SVG 20010904//EN"
 "http://www.w3.org/TR/2001/REC-SVG-20010904/DTD/svg10.dtd">
<svg version="1.0" xmlns="http://www.w3.org/2000/svg"
 width="370.000000pt" height="450.000000pt" viewBox="0 0 370.000000 450.000000"
 preserveAspectRatio="xMidYMid meet">

<g transform="translate(0.000000,450.000000) scale(0.100000,-0.100000)"
fill="#000000" stroke="none">
<path d="M2346 3529 c-3 -8 -7 -48 -10 -89 -15 -181 -14 -179 -58 -201 -22
-11 -66 -39 -98 -62 -44 -32 -60 -50 -65 -73 -5 -29 11 -169 22 -187 2 -4 30
15 61 42 31 26 67 54 80 60 28 15 27 48 2 -452 -29 -576 -40 -916 -40 -1226 0
-294 4 -349 27 -358 24 -9 34 18 28 77 -7 66 9 609 30 990 28 522 56 955 63
990 7 33 11 36 92 64 60 20 103 29 148 28 l62 -1 0 30 c0 38 -32 69 -70 69
-25 0 -31 5 -36 28 l-6 28 -84 -4 -84 -5 0 92 c0 93 -11 133 -44 160 -13 11
-17 11 -20 0z"/>
<path d="M2953 2949 c-22 -8 -113 -122 -113 -141 0 -5 -4 -6 -10 -3 -5 3 -10
17 -10 31 0 13 -4 24 -9 24 -12 0 -21 -37 -21 -90 0 -25 -5 -52 -11 -60 -8
-11 -9 3 -6 52 5 72 0 118 -14 118 -10 0 -16 -48 -29 -205 -5 -66 -23 -180
-40 -254 -35 -150 -40 -254 -17 -343 14 -50 14 -87 1 -330 -18 -328 -24 -862
-9 -866 6 -2 12 7 15 20 5 21 7 21 13 4 4 -10 10 -17 12 -14 3 2 11 132 20
289 8 156 17 309 21 339 l6 55 20 -65 c56 -188 122 -396 129 -403 9 -11 37 46
49 97 7 33 3 56 -20 130 -74 234 -121 413 -117 441 3 17 30 88 61 158 152 345
236 728 184 832 -9 17 -19 52 -23 79 -13 92 -37 122 -82 105z m45 -118 c3 -15
-13 -47 -44 -92 -49 -72 -57 -106 -10 -44 33 42 51 46 42 8 -3 -16 -48 -157
-98 -315 -85 -268 -113 -336 -103 -255 3 17 10 111 16 207 10 172 11 176 50
261 21 47 39 91 39 97 0 6 14 27 30 45 17 19 30 41 30 48 -1 8 -25 -13 -55
-46 -30 -33 -55 -55 -55 -49 0 15 96 151 112 157 25 10 43 2 46 -22z m54 -219
c-12 -86 -83 -345 -89 -325 -2 6 10 66 27 133 17 67 33 158 36 203 2 45 7 91
11 102 6 19 6 19 16 -3 7 -16 7 -50 -1 -110z m-295 -324 c-2 -13 -4 -5 -4 17
-1 22 1 32 4 23 2 -10 2 -28 0 -40z m-10 -155 c-2 -16 -4 -3 -4 27 0 30 2 43
4 28 2 -16 2 -40 0 -55z"/>
<path d="M2097 2703 c-8 -59 -24 -310 -37 -588 -13 -255 -25 -1113 -17 -1146
4 -13 17 -29 31 -35 23 -11 24 -10 35 50 7 34 37 163 68 287 l56 227 -20 31
-20 32 -46 -148 c-28 -89 -46 -136 -47 -118 0 17 7 206 17 420 12 266 20 369
24 325 4 -36 5 7 4 95 -1 97 0 130 4 85 6 -70 7 -64 14 80 4 85 9 180 11 210
3 43 2 48 -4 20 -5 -25 -7 -8 -7 56 1 73 -3 97 -19 124 -28 49 -40 48 -47 -7z
m60 -345 c-2 -24 -4 -7 -4 37 0 44 2 63 4 43 2 -21 2 -57 0 -80z"/>
<path d="M1992 2606 c-14 -31 -19 -63 -37 -216 -16 -145 -147 -951 -153 -945
-13 13 5 485 34 864 12 159 12 211 3 233 -13 31 -21 34 -37 16 -21 -27 -32
-102 -52 -380 -37 -514 -42 -978 -11 -1036 16 -30 56 -29 76 2 21 31 38 117
75 376 17 118 33 220 35 225 2 6 3 -179 2 -410 -2 -394 2 -475 21 -475 5 0 17
6 28 14 18 14 19 34 26 348 4 183 14 497 23 698 26 588 27 623 18 665 -10 47
-34 57 -51 21z"/>
<path d="M1677 2558 c-23 -95 -112 -573 -139 -748 -18 -118 -35 -202 -36 -186
-2 16 1 188 7 381 7 237 7 363 0 388 -10 39 -24 54 -34 37 -9 -15 -42 -214
-80 -483 -33 -240 -55 -319 -55 -202 0 33 9 210 21 394 16 255 18 340 9 359
-20 45 -31 9 -45 -154 -26 -299 -61 -1321 -48 -1401 4 -24 11 -33 24 -33 23 0
24 4 44 225 18 204 55 506 90 735 l23 155 -5 -451 c-5 -358 -4 -452 7 -459 20
-12 27 10 40 129 10 93 25 188 46 301 2 11 17 103 34 205 17 102 32 190 34
195 3 6 2 -55 -2 -135 -10 -211 -9 -792 2 -815 8 -18 10 -15 22 20 10 32 13
35 13 15 1 -20 3 -22 11 -10 5 8 10 75 10 149 0 164 24 671 50 1033 10 147 16
278 12 290 -5 22 -41 88 -47 88 -2 0 -5 -10 -8 -22z"/>
<path d="M2482 2498 c-58 -73 -122 -594 -122 -1006 0 -156 25 -398 48 -460 16
-42 21 -47 47 -47 26 0 34 7 62 60 36 67 103 261 103 299 0 31 -18 44 -27 19
-35 -100 -68 -177 -94 -218 -31 -49 -32 -50 -41 -25 -11 28 -4 491 7 527 5 16
21 25 56 34 52 14 64 30 53 73 -6 24 -9 25 -44 20 -21 -3 -40 -2 -43 3 -10 16
41 352 64 428 19 61 23 67 31 48 6 -12 19 -23 29 -26 26 -7 25 25 -2 105 -51
147 -95 205 -127 166z m-17 -575 c-4 -65 -12 -127 -16 -138 -6 -13 -8 -2 -4
35 2 30 7 92 11 138 4 45 9 82 11 82 3 0 2 -53 -2 -117z m-38 -590 c-2 -32 -3
-6 -3 57 0 63 1 89 3 58 2 -32 2 -84 0 -115z"/>
<path d="M666 2240 c3 -118 6 -340 7 -492 2 -255 3 -279 20 -295 18 -17 19
-17 13 27 -14 109 -18 371 -8 461 10 80 9 102 -4 144 -10 30 -19 115 -24 210
-8 151 -8 148 -4 -55z"/>
<path d="M1048 1812 c-19 -53 -55 -92 -85 -95 -19 -1 -20 -11 -27 -157 -7
-155 -24 -283 -45 -330 -18 -40 -61 -95 -74 -95 -17 0 -44 59 -66 146 l-20 74
0 -50 c-2 -120 48 -346 85 -386 18 -20 69 -26 79 -9 4 7 16 1 30 -15 65 -69
141 20 175 203 26 146 29 535 5 656 -14 66 -26 106 -33 106 -4 0 -15 -22 -24
-48z"/>
</g>
</svg>
