<?xml version="1.0" standalone="no"?>
<!DOCTYPE svg PUBLIC "-//W3C//DTD SVG 20010904//EN"
 "http://www.w3.org/TR/2001/REC-SVG-20010904/DTD/svg10.dtd">
<svg version="1.0" xmlns="http://www.w3.org/2000/svg"
 width="520.000000pt" height="450.000000pt" viewBox="0 0 520.000000 450.000000"
 preserveAspectRatio="xMidYMid meet">
<metadata>
Created by potrace 1.16, written by Peter Selinger 2001-2019
</metadata>
<g transform="translate(0.000000,450.000000) scale(0.100000,-0.100000)"
fill="#000000" stroke="none">
<path d="M3467 4493 c-4 -3 -7 -257 -7 -564 0 -357 -4 -560 -10 -564 -5 -3
-41 19 -78 49 -41 33 -79 56 -93 56 -28 0 -537 -412 -556 -451 -17 -32 -18
-850 -2 -897 10 -30 72 -84 432 -375 59 -48 117 -87 127 -87 10 0 138 97 284
216 196 159 267 223 275 246 8 21 11 349 11 1055 0 906 -2 1029 -16 1056 -9
20 -73 77 -165 150 -139 108 -182 131 -202 110z m-89 -1715 l82 -69 0 -143 0
-144 -87 -71 c-49 -39 -91 -71 -95 -71 -4 0 -45 32 -92 71 l-86 70 0 147 0
147 88 71 c48 39 92 69 97 66 6 -3 47 -37 93 -74z"/>
<path d="M275 3280 c-143 -117 -263 -217 -267 -223 -4 -7 -8 -276 -8 -598 0
-502 2 -588 15 -599 8 -6 20 -8 27 -4 34 20 310 248 323 267 12 18 15 70 15
308 0 329 -8 299 106 390 76 60 73 61 177 -26 l67 -57 0 -276 c0 -152 5 -293
10 -312 8 -30 38 -59 176 -170 136 -109 169 -132 182 -123 16 9 17 63 20 592
1 379 -1 589 -8 601 -19 35 -519 435 -548 438 -23 2 -72 -33 -287 -208z"/>
<path d="M1635 3266 c-221 -181 -262 -220 -273 -252 -10 -30 -12 -134 -10
-460 3 -406 4 -423 23 -444 27 -30 497 -415 525 -430 17 -9 26 -8 47 5 55 36
514 418 523 435 16 29 13 889 -3 918 -20 36 -525 442 -550 442 -13 -1 -125
-86 -282 -214z"/>
<path d="M4360 3269 c-140 -115 -261 -217 -267 -226 -10 -13 -13 -122 -13
-464 0 -430 1 -447 20 -471 38 -50 519 -428 542 -428 14 1 88 52 186 130 143
114 162 133 162 159 0 34 -5 38 -322 295 l-208 168 0 141 c0 78 4 147 8 152
15 22 159 135 171 135 17 0 158 -116 171 -140 5 -10 10 -71 10 -134 0 -104 2
-116 20 -126 17 -9 35 2 127 76 59 48 136 112 171 141 l62 55 0 152 0 152 -32
31 c-18 17 -138 117 -266 222 -177 145 -240 191 -260 190 -20 0 -96 -57 -282
-210z"/>
<path d="M4581 2718 l-51 -42 0 -95 0 -96 54 -43 c30 -23 57 -42 61 -42 4 0
31 21 61 46 l54 46 0 88 0 88 -54 46 c-29 25 -58 46 -63 46 -6 0 -33 -19 -62
-42z"/>
<path d="M2540 1813 c-31 -13 -506 -407 -525 -437 -19 -30 -20 -48 -20 -466 0
-345 3 -442 14 -467 15 -37 157 -158 211 -181 50 -21 115 -11 151 24 56 54 60
86 57 544 l-3 415 -46 3 c-41 3 -47 0 -53 -20 -3 -13 -6 -199 -6 -415 0 -343
-2 -394 -16 -407 -32 -33 -65 -17 -187 90 l-27 24 2 387 3 387 120 99 c66 54
173 141 237 194 l117 95 236 -192 235 -191 -1 -397 0 -397 -228 -185 c-125
-101 -232 -185 -237 -187 -5 -2 -36 19 -69 47 -33 27 -63 50 -67 50 -17 0 -97
-56 -95 -67 1 -7 43 -46 92 -88 83 -68 94 -75 135 -75 44 1 52 6 290 201 135
111 254 215 265 232 19 30 20 52 23 437 4 462 1 488 -56 542 -48 45 -424 353
-470 384 -35 24 -54 28 -82 17z"/>
<path d="M3271 1457 c-63 -32 -88 -122 -53 -199 37 -86 125 -88 163 -4 22 49
24 95 5 139 -24 58 -73 86 -115 64z"/>
<path d="M2625 1261 c-45 -12 -69 -27 -103 -65 -56 -64 -65 -199 -18 -268 40
-59 66 -70 247 -107 79 -16 94 -30 93 -82 -1 -31 -8 -48 -23 -60 -44 -36 -177
-36 -221 -1 -11 9 -27 40 -34 67 l-12 50 -45 0 -44 0 -3 -40 c-5 -54 15 -116
49 -158 96 -116 349 -103 414 22 40 78 41 195 1 253 -33 49 -65 66 -161 89
-171 39 -194 54 -179 113 10 42 40 56 117 56 58 0 71 -3 92 -24 13 -13 27 -37
30 -53 12 -54 13 -54 62 -51 l48 3 -3 50 c-4 75 -44 149 -97 181 -47 27 -153
40 -210 25z"/>
</g>
</svg>
