<?xml version="1.0" standalone="no"?>
<!DOCTYPE svg PUBLIC "-//W3C//DTD SVG 20010904//EN"
 "http://www.w3.org/TR/2001/REC-SVG-20010904/DTD/svg10.dtd">
<svg version="1.0" xmlns="http://www.w3.org/2000/svg"
 width="520.000000pt" height="450.000000pt" viewBox="0 0 520.000000 450.000000"
 preserveAspectRatio="xMidYMid meet">
<metadata>
Created by potrace 1.16, written by Peter Selinger 2001-2019
</metadata>
<g transform="translate(0.000000,450.000000) scale(0.100000,-0.100000)"
fill="#000000" stroke="none">
<path d="M3020 4281 c-8 -5 -35 -12 -60 -16 -25 -4 -79 -15 -120 -25 -61 -16
-83 -17 -120 -8 -25 6 -112 11 -195 12 -162 1 -228 -11 -334 -59 l-54 -25 -66
19 c-156 46 -229 56 -426 56 -154 0 -201 -4 -250 -19 -233 -70 -374 -209 -437
-433 -32 -113 -31 -363 1 -513 44 -206 98 -416 111 -435 4 -5 22 -55 40 -110
45 -138 115 -316 155 -394 47 -93 162 -239 217 -277 90 -61 182 -63 263 -6 37
26 44 28 60 16 97 -71 411 -109 503 -61 l32 18 0 -48 c1 -218 37 -458 80 -544
31 -59 87 -117 141 -145 181 -91 504 -40 647 103 63 63 101 145 122 263 9 52
19 102 23 110 5 14 27 164 42 285 l6 50 112 1 c187 2 325 48 420 139 54 52
107 152 107 204 0 45 -35 100 -68 107 -15 3 -32 7 -37 9 -6 1 -51 -4 -100 -11
-89 -13 -205 -19 -205 -9 0 3 22 43 49 90 27 47 72 138 101 202 29 65 66 144
81 176 40 81 96 261 127 402 21 100 26 147 26 280 1 147 -1 164 -22 212 -37
80 -173 201 -312 276 -65 36 -175 72 -305 101 -76 17 -328 22 -355 7z m425
-130 c127 -34 252 -102 345 -189 45 -41 89 -91 100 -111 97 -190 2 -641 -229
-1086 -37 -72 -91 -166 -119 -210 -39 -58 -49 -81 -40 -86 30 -19 125 -21 242
-5 125 17 147 15 179 -12 33 -29 22 -72 -32 -122 -107 -100 -238 -144 -434
-145 -142 0 -131 6 -142 -80 -22 -178 -68 -453 -84 -503 -38 -123 -118 -198
-256 -242 -98 -31 -227 -38 -294 -15 -71 23 -151 98 -184 172 -37 83 -47 159
-54 411 -3 122 -7 222 -9 222 -2 0 -32 -16 -67 -35 -86 -47 -189 -64 -294 -46
-154 26 -224 82 -188 151 16 32 70 55 195 85 63 15 81 24 113 58 41 42 38 57
-10 57 -13 0 -45 9 -73 19 l-49 19 -138 -150 c-175 -190 -233 -225 -329 -199
-193 52 -394 476 -526 1111 -85 410 -1 718 231 844 99 53 163 68 328 73 170 6
276 -7 451 -56 l101 -28 38 22 c85 51 159 68 303 69 74 1 173 -1 220 -3 62 -3
112 2 185 17 136 29 398 25 520 -7z"/>
<path d="M3110 4093 c-91 -6 -150 -15 -150 -24 0 -5 6 -9 12 -9 20 0 127 -69
202 -129 122 -99 244 -266 302 -413 29 -73 29 -105 7 -265 -15 -108 -15 -137
-3 -266 17 -185 10 -265 -29 -351 -16 -36 -26 -66 -21 -66 15 0 150 235 206
359 145 321 224 673 185 826 -28 110 -187 239 -362 294 -107 34 -239 50 -349
44z"/>
<path d="M2386 4044 c-188 -46 -341 -207 -404 -429 -24 -85 -46 -204 -39 -211
3 -3 19 1 35 10 51 26 174 56 232 56 104 0 171 -35 220 -115 31 -50 60 -217
60 -343 0 -129 -16 -201 -70 -322 -23 -49 -50 -115 -60 -145 l-19 -55 25 0
c59 0 147 -68 158 -123 3 -12 7 -155 10 -317 6 -332 16 -431 51 -500 25 -50
81 -105 122 -121 43 -16 157 -10 229 12 121 37 179 90 209 192 17 56 68 411
85 592 7 66 19 139 27 163 14 40 55 81 96 95 16 6 13 13 -21 56 -49 62 -193
316 -249 441 -143 316 -63 499 219 502 l87 1 -39 76 c-127 253 -350 427 -615
482 -107 22 -264 24 -349 3z"/>
<path d="M1478 4034 c-159 -38 -264 -135 -319 -294 -20 -57 -23 -85 -23 -225
-1 -131 3 -180 22 -270 33 -155 105 -423 147 -546 76 -219 201 -439 273 -481
39 -23 93 -23 124 1 13 11 81 80 152 155 l128 136 -48 52 c-85 96 -118 208
-103 359 4 41 8 169 8 284 0 212 11 310 47 435 26 90 91 215 144 279 28 33 50
62 50 65 0 8 -101 34 -194 51 -110 19 -329 19 -408 -1z"/>
<path d="M3183 3369 c-96 -47 -97 -170 -2 -369 51 -107 172 -329 180 -330 3 0
11 17 17 39 15 49 15 163 1 305 -10 94 -9 130 5 232 9 66 16 125 16 132 0 8
-26 12 -87 12 -69 0 -97 -5 -130 -21z"/>
<path d="M2105 3361 c-63 -19 -152 -58 -160 -70 -4 -8 -18 -346 -18 -462 0
-151 126 -299 270 -315 l48 -6 18 53 c11 30 37 94 58 142 22 49 46 114 54 145
32 119 10 395 -36 471 -37 61 -120 75 -234 42z"/>
<path d="M3383 2395 c-25 -10 -33 -22 -39 -49 -3 -20 -4 -42 -1 -49 12 -32
218 -27 313 6 56 20 147 67 141 73 -2 3 -44 0 -93 -6 -101 -13 -181 -6 -243
21 -24 10 -44 19 -45 19 0 -1 -15 -7 -33 -15z"/>
<path d="M2275 2320 c-83 -80 -84 -80 -210 -111 -83 -21 -83 -21 -57 -30 13
-5 52 -13 86 -19 185 -29 393 104 321 207 -31 44 -52 37 -140 -47z"/>
<path d="M3233 860 c-63 -13 -126 -54 -143 -92 -23 -52 -19 -137 8 -176 31
-42 62 -58 169 -82 48 -11 121 -27 161 -37 89 -20 112 -43 112 -112 0 -39 -5
-52 -27 -73 -38 -34 -54 -39 -149 -39 -62 0 -95 5 -128 19 -47 21 -61 39 -80
106 -11 38 -15 41 -50 44 -21 2 -42 0 -46 -5 -14 -14 6 -101 31 -137 14 -21
49 -49 84 -68 58 -31 65 -33 175 -33 141 0 192 16 248 80 33 38 40 54 44 103
1 6 8 12 15 12 8 0 11 -4 8 -10 -3 -5 -3 -10 2 -10 4 0 19 -18 32 -40 31 -49
91 -93 161 -117 75 -25 250 -25 299 0 33 17 34 17 75 -16 22 -17 43 -35 44
-39 10 -24 71 17 71 47 0 6 -19 25 -43 44 l-44 34 34 44 c95 125 82 354 -27
462 -56 55 -150 94 -240 99 -167 10 -287 -50 -364 -183 -23 -39 -29 -62 -33
-140 l-5 -93 -24 29 c-25 29 -71 56 -110 63 -77 15 -214 47 -234 55 -26 9 -33
11 -49 11 -13 0 -40 54 -40 80 0 36 28 77 61 91 48 19 187 17 226 -4 38 -20
63 -53 63 -84 0 -30 26 -53 59 -53 33 0 57 23 45 42 -5 7 -9 21 -10 31 -1 9
-2 21 -3 27 -3 23 -70 85 -111 103 -51 23 -197 32 -267 17z m890 -88 c101 -45
154 -146 145 -274 -13 -180 -138 -274 -327 -246 -65 10 -100 28 -143 72 -81
84 -94 271 -26 369 67 95 231 132 351 79z"/>
<path d="M4380 527 c0 -238 3 -326 12 -335 14 -14 156 -16 371 -5 146 7 153
10 141 59 l-6 25 -209 -3 -209 -3 0 293 0 292 -50 0 -50 0 0 -323z"/>
<path d="M548 773 l-118 -4 0 -274 0 -275 46 0 45 0 -3 115 -3 115 129 0 c119
0 132 2 171 25 72 42 95 137 55 221 -35 71 -89 84 -322 77z m230 -86 c38 -35
32 -135 -10 -158 -11 -6 -73 -13 -137 -16 l-116 -6 3 103 3 102 119 -3 c96 -3
122 -7 138 -22z"/>
<path d="M1777 703 c-4 -3 -7 -28 -7 -54 0 -45 -2 -48 -27 -51 -23 -2 -29 -8
-31 -35 -3 -31 -1 -33 27 -33 l31 0 1 -112 c1 -62 4 -126 8 -143 7 -37 60 -67
111 -63 32 3 35 6 35 33 0 26 -3 30 -23 27 -46 -7 -52 11 -52 142 l0 122 40
-4 c40 -4 40 -4 40 32 0 35 -1 36 -40 36 l-40 0 0 55 0 55 -33 0 c-19 0 -37
-3 -40 -7z"/>
<path d="M1007 596 c-79 -29 -119 -95 -119 -192 0 -123 72 -196 195 -197 86
-1 129 16 176 69 85 96 61 241 -50 303 -52 29 -148 37 -202 17z m183 -84 c53
-53 49 -178 -7 -221 -20 -16 -40 -21 -90 -21 -61 0 -67 2 -99 34 -19 19 -34
42 -35 53 0 10 -2 27 -4 38 -7 36 15 93 46 119 26 22 40 26 96 26 58 0 68 -3
93 -28z"/>
<path d="M1425 600 c-57 -14 -94 -60 -91 -112 5 -65 33 -84 158 -106 138 -25
165 -45 118 -92 -16 -16 -33 -20 -95 -20 -81 0 -115 18 -115 60 0 17 -7 20
-40 20 -35 0 -40 -3 -40 -22 0 -36 34 -83 73 -101 47 -23 182 -23 237 -1 61
25 86 87 59 148 -16 34 -58 52 -154 66 -105 15 -125 24 -125 54 0 34 23 48 82
50 80 1 108 -9 114 -44 5 -22 13 -30 35 -35 54 -12 63 13 27 76 -13 24 -33 42
-52 49 -45 16 -144 21 -191 10z"/>
<path d="M2048 600 c-86 -26 -132 -92 -131 -191 1 -75 33 -133 88 -162 57 -28
158 -28 215 2 l43 22 -7 -43 c-4 -24 -14 -53 -21 -65 -19 -28 -85 -46 -139
-38 -57 10 -76 22 -88 56 -8 24 -15 29 -44 29 -39 0 -41 -8 -15 -66 26 -56 67
-74 170 -74 101 0 140 16 181 71 l30 43 -2 205 -3 206 -32 3 c-30 3 -33 1 -33
-24 l0 -28 -20 22 c-34 36 -126 52 -192 32z m165 -81 c50 -38 58 -140 16 -193
-44 -56 -158 -59 -211 -6 -24 25 -28 36 -28 87 1 100 34 132 136 133 47 0 67
-5 87 -21z"/>
<path d="M2505 599 c-16 -5 -36 -16 -42 -26 -12 -15 -13 -15 -13 5 0 18 -6 22
-30 22 -16 0 -33 -6 -37 -14 -4 -8 -7 -94 -5 -190 l3 -176 33 0 33 0 5 131 c5
125 6 131 32 157 22 22 35 27 79 27 47 0 52 2 55 23 7 47 -38 64 -113 41z"/>
<path d="M2721 595 c-85 -26 -131 -93 -131 -189 0 -69 12 -99 52 -138 47 -43
94 -61 163 -61 73 -1 137 30 172 82 33 49 30 71 -7 71 -25 0 -35 -7 -52 -36
-25 -43 -51 -54 -125 -54 -49 0 -59 4 -89 34 -19 19 -34 43 -34 55 0 21 4 21
170 21 192 0 182 -6 159 84 -29 115 -148 171 -278 131z m158 -70 c25 -12 51
-52 51 -75 0 -6 -54 -10 -130 -10 -71 0 -130 3 -130 6 0 3 7 21 15 39 15 29
33 44 75 59 22 8 88 -2 119 -19z"/>
</g>
</svg>
