<?xml version="1.0" standalone="no"?>
<!DOCTYPE svg PUBLIC "-//W3C//DTD SVG 20010904//EN"
 "http://www.w3.org/TR/2001/REC-SVG-20010904/DTD/svg10.dtd">
<svg version="1.0" xmlns="http://www.w3.org/2000/svg"
 width="520.000000pt" height="450.000000pt" viewBox="0 0 520.000000 450.000000"
 preserveAspectRatio="xMidYMid meet">
<metadata>
Created by potrace 1.16, written by Peter Selinger 2001-2019
</metadata>
<g transform="translate(0.000000,450.000000) scale(0.100000,-0.100000)"
fill="#000000" stroke="none">
<path d="M1933 3910 c-23 -5 -55 -15 -70 -24 -38 -19 -96 -84 -122 -135 -84
-163 -97 -475 -36 -838 4 -23 2 -33 -7 -33 -25 0 -223 -101 -303 -155 -98 -65
-203 -168 -249 -244 -175 -289 7 -604 472 -811 101 -45 94 -22 68 -227 -23
-174 -18 -417 9 -533 36 -154 120 -274 211 -299 164 -45 372 57 612 301 l83
84 102 -100 c124 -121 249 -212 354 -257 105 -44 203 -47 278 -8 88 45 145
142 182 309 30 137 16 539 -23 673 -4 13 3 20 25 28 141 49 336 172 440 277
106 108 153 201 159 316 3 63 0 99 -14 141 -35 114 -136 236 -276 336 -70 50
-300 169 -325 169 -16 0 -16 6 2 110 9 47 18 175 21 285 5 179 4 211 -15 303
-26 124 -56 196 -107 251 -47 53 -101 81 -169 88 -141 15 -361 -110 -562 -319
l-72 -75 -93 91 c-225 222 -426 325 -575 296z m191 -223 c91 -43 173 -106 281
-213 l86 -85 -32 -42 c-37 -49 -206 -304 -211 -318 -2 -5 -45 -16 -97 -25 -52
-9 -137 -27 -190 -39 -53 -13 -97 -22 -99 -20 -10 9 -33 205 -39 320 -11 250
33 425 117 459 31 12 116 -5 184 -37z m1166 16 c84 -77 110 -340 66 -656 -8
-54 -16 -100 -18 -102 -2 -2 -46 7 -99 20 -53 12 -138 30 -190 39 -52 9 -95
20 -97 25 -4 13 -153 238 -202 305 l-43 59 99 96 c215 207 400 289 484 214z
m-601 -573 l62 -90 -151 0 c-118 0 -150 3 -144 13 4 6 36 54 72 105 76 108 66
110 161 -28z m129 -286 l61 -7 90 -181 c98 -197 171 -367 171 -398 0 -29 -101
-263 -187 -430 -72 -142 -76 -148 -112 -155 -45 -9 -469 -9 -497 1 -34 11
-284 521 -284 580 0 30 87 233 177 413 l86 172 41 4 c74 7 392 7 454 1z m-698
-37 c0 -2 -28 -64 -63 -138 -35 -74 -68 -145 -73 -158 -9 -22 -14 -11 -42 85
-52 182 -60 158 60 187 110 27 118 29 118 24z m1088 -27 c75 -18 92 -26 88
-39 -2 -9 -18 -69 -36 -134 l-33 -118 -37 83 c-20 46 -53 116 -73 155 -42 83
-43 86 -19 80 9 -3 59 -15 110 -27z m-1438 -160 c12 -47 42 -148 67 -224 l45
-139 -41 -126 c-22 -69 -52 -168 -65 -220 -14 -51 -27 -95 -29 -97 -2 -2 -62
25 -133 60 -200 100 -345 231 -375 339 -37 137 129 319 415 452 50 24 92 42
93 42 1 -1 11 -40 23 -87z m1914 -28 c146 -87 263 -216 282 -309 26 -129 -174
-326 -447 -443 l-66 -28 -23 86 c-13 48 -43 149 -67 225 l-44 137 35 108 c32
100 76 251 90 314 l6 27 78 -35 c42 -19 113 -56 156 -82z m-1605 -791 c23 -45
40 -85 38 -88 -3 -2 -36 3 -73 12 -135 31 -145 35 -140 53 2 9 19 70 37 135
l32 118 32 -73 c17 -40 51 -111 74 -157z m1197 60 c19 -68 23 -96 14 -101 -15
-9 -201 -52 -206 -47 -2 2 27 69 66 150 38 80 70 152 71 159 1 19 26 -55 55
-161z m-1281 -316 c55 -12 132 -28 172 -35 l72 -12 77 -116 c42 -65 99 -148
127 -186 l51 -69 -104 -101 c-166 -160 -295 -236 -401 -236 -44 0 -55 4 -84
33 -66 66 -96 266 -76 495 17 203 29 265 50 257 9 -4 61 -17 116 -30z m1349 8
c35 -173 45 -420 22 -551 -33 -191 -91 -239 -234 -197 -76 23 -219 124 -328
230 l-94 93 80 112 c45 62 99 144 122 182 22 37 44 70 48 73 4 3 68 16 141 30
74 13 154 31 179 39 61 19 58 20 64 -11z m-600 -85 c-24 -41 -136 -198 -142
-198 -6 0 -125 161 -146 198 -6 9 26 12 144 12 118 0 150 -3 144 -12z"/>
<path d="M2495 2586 c-61 -28 -118 -90 -154 -165 -23 -49 -26 -68 -26 -161 0
-97 2 -110 31 -170 57 -118 147 -183 254 -183 30 0 72 7 92 16 60 25 132 100
164 170 25 55 29 73 28 162 0 80 -4 111 -22 156 -65 163 -227 241 -367 175z"/>
</g>
</svg>
