<?xml version="1.0" standalone="no"?>
<!DOCTYPE svg PUBLIC "-//W3C//DTD SVG 20010904//EN"
 "http://www.w3.org/TR/2001/REC-SVG-20010904/DTD/svg10.dtd">
<svg version="1.0" xmlns="http://www.w3.org/2000/svg"
 width="550.000000pt" height="380.000000pt" viewBox="0 0 550.000000 380.000000"
 preserveAspectRatio="xMidYMid meet">
<metadata>
Created by potrace 1.16, written by Peter Selinger 2001-2019
</metadata>
<g transform="translate(0.000000,380.000000) scale(0.100000,-0.100000)"
fill="#000000" stroke="none">
<path d="M2852 3690 c-150 -21 -317 -85 -443 -170 -82 -56 -213 -187 -269
-269 -173 -258 -224 -595 -133 -886 46 -147 150 -322 245 -412 l33 -33 -3 40
c-3 33 1 44 26 70 62 62 151 23 152 -66 0 -62 -59 -105 -116 -84 -13 5 -24 8
-24 7 0 -2 29 -24 64 -50 243 -178 571 -240 867 -164 333 86 605 337 714 658
78 228 74 523 -10 862 -33 130 -105 369 -116 381 -4 5 -23 -22 -43 -60 -19
-38 -43 -81 -54 -96 l-18 -28 -30 31 c-74 78 -237 177 -364 221 -134 47 -340
67 -478 48z m1008 -317 c229 -713 120 -1203 -299 -1349 -130 -45 -243 -55
-601 -53 -179 2 -341 -1 -360 -5 -31 -6 -33 -5 -18 7 10 8 109 42 220 76 117
36 246 83 303 111 224 109 418 299 536 525 65 125 70 155 10 63 -64 -98 -201
-241 -311 -324 -172 -131 -360 -205 -724 -288 l-159 -36 -43 25 c-86 50 -144
175 -144 309 0 242 155 443 402 521 55 17 121 28 220 35 312 23 387 39 532
111 154 76 290 193 362 310 20 32 38 59 40 59 2 0 17 -44 34 -97z"/>
<path d="M1564 1416 c-67 -16 -136 -58 -190 -114 l-44 -46 0 48 c0 41 -5 53
-34 82 -30 30 -40 34 -86 34 -66 0 -105 -34 -115 -101 -3 -24 -5 -292 -3 -594
3 -514 4 -553 21 -579 42 -63 136 -70 189 -14 l28 30 0 190 0 191 49 -46 c97
-91 222 -129 355 -108 188 30 331 164 381 358 19 74 19 242 0 317 -67 258
-307 411 -551 352z m163 -224 c167 -86 217 -330 99 -492 -118 -163 -365 -134
-464 54 -24 46 -27 62 -27 151 0 89 3 105 27 150 76 143 235 203 365 137z"/>
<path d="M4565 1416 c-209 -54 -339 -228 -352 -471 -12 -240 82 -422 265 -512
75 -38 77 -38 196 -38 110 0 126 2 178 27 32 15 80 47 107 73 l49 46 -7 -33
c-21 -91 -84 -164 -169 -192 -98 -34 -286 -15 -393 40 -51 25 -107 31 -140 14
-51 -28 -61 -117 -16 -157 55 -50 232 -102 377 -110 247 -13 443 67 522 214
62 113 63 127 63 605 l0 437 -28 29 c-35 37 -84 48 -129 29 -49 -21 -70 -51
-75 -104 l-5 -48 -59 57 c-74 71 -143 100 -254 104 -45 2 -102 -2 -130 -10z
m257 -212 c67 -22 122 -75 159 -150 59 -120 40 -266 -47 -363 -60 -67 -121
-95 -204 -95 -116 0 -217 74 -257 187 -26 76 -24 197 5 262 63 139 207 206
344 159z"/>
<path d="M495 1406 c-158 -50 -231 -149 -224 -304 3 -66 9 -86 34 -128 47 -75
107 -108 324 -176 150 -46 201 -101 155 -166 -25 -36 -68 -52 -137 -52 -78 0
-152 21 -235 66 -113 61 -192 37 -192 -59 0 -56 25 -82 123 -131 106 -52 190
-68 327 -64 98 3 123 7 171 29 103 48 162 129 175 241 20 169 -70 263 -331
348 -55 18 -119 43 -142 57 -67 37 -72 101 -13 141 52 36 155 28 272 -21 101
-42 134 -41 173 5 29 34 32 66 9 109 -18 36 -107 81 -207 104 -75 18 -227 18
-282 1z"/>
<path d="M2244 1386 l-34 -34 0 -447 0 -447 34 -34 c29 -29 41 -34 83 -34 28
0 58 7 71 16 47 33 52 59 52 282 0 182 3 218 20 275 36 117 122 197 243 227
63 16 97 56 97 113 0 52 -30 104 -65 113 -76 19 -197 -19 -260 -81 l-32 -33
-12 38 c-16 55 -52 80 -113 80 -43 0 -54 -4 -84 -34z"/>
<path d="M2924 1386 l-34 -34 0 -442 c0 -305 3 -448 11 -463 21 -41 51 -57
107 -57 46 0 58 4 82 28 19 19 30 44 35 73 3 24 5 226 3 449 -3 367 -5 407
-21 431 -22 33 -57 49 -108 49 -33 0 -48 -7 -75 -34z"/>
<path d="M3268 1391 l-33 -29 0 -457 0 -457 33 -29 c26 -24 41 -29 82 -29 41
0 56 5 82 29 l33 29 5 299 c4 244 8 304 21 333 59 130 241 168 337 72 60 -60
64 -83 71 -415 l6 -299 28 -24 c22 -19 39 -24 83 -24 48 0 60 4 85 29 l29 29
0 340 c0 306 -2 346 -19 401 -30 95 -75 149 -166 199 -46 25 -58 27 -170 27
-107 0 -125 -3 -169 -24 -28 -14 -69 -44 -93 -66 -40 -39 -43 -40 -43 -18 0
32 -25 78 -52 97 -13 9 -43 16 -70 16 -39 0 -54 -6 -80 -29z"/>
</g>
</svg>
